<?xml version="1.0" standalone="no"?>
<!DOCTYPE svg PUBLIC "-//W3C//DTD SVG 20010904//EN"
 "http://www.w3.org/TR/2001/REC-SVG-20010904/DTD/svg10.dtd">
<svg version="1.0" xmlns="http://www.w3.org/2000/svg"
 width="512.000000pt" height="512.000000pt" viewBox="0 0 512.000000 512.000000"
 preserveAspectRatio="xMidYMid meet">

<g transform="translate(0.000000,512.000000) scale(0.100000,-0.100000)"
fill="#000000" stroke="none">
<path d="M2312 5099 c-28 -14 -51 -36 -67 -64 -23 -39 -25 -51 -25 -171 0
-115 3 -133 23 -169 13 -22 40 -49 62 -62 36 -20 54 -23 170 -23 116 0 134 3
170 23 67 37 85 87 85 233 0 107 -3 126 -23 164 -38 72 -84 90 -231 90 -103 0
-127 -3 -164 -21z m248 -234 l0 -85 -85 0 -85 0 0 85 0 85 85 0 85 0 0 -85z"/>
<path d="M3682 5104 c-76 -39 -102 -100 -102 -239 0 -107 11 -153 47 -196 42
-49 77 -59 213 -59 136 0 171 10 213 59 38 46 50 101 45 221 -4 119 -17 153
-75 197 -35 27 -41 28 -172 31 -111 2 -142 -1 -169 -14z m246 -241 l3 -83 -91
0 -90 0 0 78 c0 43 3 82 7 86 4 4 43 5 88 4 l80 -3 3 -82z"/>
<path d="M4364 5101 c-23 -10 -52 -34 -65 -52 -22 -31 -24 -45 -27 -170 -4
-158 5 -190 64 -235 36 -28 41 -29 175 -32 126 -3 142 -2 176 18 21 11 50 37
63 57 22 32 25 49 28 141 5 143 -3 185 -41 229 -47 54 -79 63 -214 63 -93 0
-127 -4 -159 -19z m246 -236 l0 -85 -85 0 -85 0 0 85 0 85 85 0 85 0 0 -85z"/>
<path d="M2325 4421 c-50 -22 -92 -71 -100 -115 -4 -18 -5 -87 -3 -153 3 -113
5 -122 31 -156 46 -60 68 -67 225 -67 128 0 142 2 173 23 18 12 44 40 56 62
20 35 23 54 23 162 0 162 -18 204 -105 244 -57 26 -243 26 -300 0z m235 -236
l0 -85 -85 0 -85 0 0 85 0 85 85 0 85 0 0 -85z"/>
<path d="M3005 4422 c-83 -40 -105 -90 -105 -244 0 -131 16 -180 71 -219 32
-22 45 -24 179 -27 138 -3 147 -2 180 20 19 13 45 39 57 57 21 31 23 45 23
169 0 153 -11 187 -77 232 -33 23 -47 25 -162 28 -107 2 -132 0 -166 -16z
m235 -237 l0 -85 -85 0 -85 0 0 85 0 85 85 0 85 0 0 -85z"/>
<path d="M4385 4429 c-38 -12 -68 -37 -94 -80 -18 -30 -21 -50 -21 -170 0
-125 2 -139 23 -170 12 -18 38 -44 57 -57 33 -22 42 -23 180 -20 134 3 147 5
179 27 55 39 71 88 71 219 0 212 -49 262 -255 261 -60 0 -123 -5 -140 -10z
m225 -244 l0 -85 -85 0 -85 0 0 85 0 85 85 0 85 0 0 -85z"/>
<path d="M2304 3731 c-17 -10 -42 -34 -55 -53 -21 -29 -24 -46 -27 -152 -4
-144 1 -176 35 -217 46 -54 93 -69 218 -69 120 0 169 15 212 61 36 39 43 74
43 202 0 108 -3 127 -23 162 -12 22 -38 50 -56 62 -31 21 -45 23 -175 23 -121
0 -145 -3 -172 -19z m256 -236 l0 -85 -85 0 -85 0 0 85 0 85 85 0 85 0 0 -85z"/>
<path d="M3671 3729 c-75 -46 -97 -109 -89 -267 6 -114 24 -155 86 -194 34
-21 49 -23 172 -23 123 0 138 2 172 23 62 39 80 80 86 194 8 158 -14 221 -89
267 -30 18 -50 21 -169 21 -119 0 -139 -3 -169 -21z m257 -231 l-3 -83 -85 0
-85 0 -3 83 -3 82 91 0 91 0 -3 -82z"/>
<path d="M440 3231 c-69 -21 -125 -63 -247 -186 -102 -102 -139 -146 -160
-191 l-28 -59 0 -1305 0 -1305 22 -40 c25 -47 74 -95 123 -121 34 -18 113 -19
2410 -19 l2375 0 40 22 c47 25 95 74 121 123 18 34 19 85 19 1300 l0 1265 -29
53 c-50 89 -128 132 -241 132 -62 0 -63 0 -69 32 -9 46 -45 94 -87 117 -32 18
-54 21 -164 21 -141 0 -176 -10 -220 -62 -14 -16 -28 -47 -31 -69 l-7 -39
-427 0 -427 0 -7 39 c-3 22 -17 53 -31 69 -44 52 -79 62 -221 62 -118 0 -130
-2 -170 -25 -41 -24 -84 -89 -84 -128 0 -15 -12 -17 -84 -17 l-84 0 -6 33
c-10 50 -42 94 -85 117 -34 17 -59 20 -168 20 -114 0 -132 -3 -168 -23 -42
-24 -85 -86 -85 -124 0 -22 -3 -23 -90 -23 -57 0 -104 5 -126 15 -19 8 -96 75
-172 148 -198 193 -125 177 -810 176 -306 0 -568 -4 -582 -8z m1137 -172 c15
-6 87 -69 160 -140 168 -166 198 -181 366 -187 110 -4 117 -6 117 -25 0 -39
48 -104 93 -126 62 -30 261 -31 321 -1 46 22 82 69 92 118 l7 32 82 0 83 0 10
-43 c12 -46 60 -99 105 -116 16 -6 81 -11 145 -11 92 0 126 4 158 19 48 22 83
66 91 116 l6 35 427 0 427 0 6 -35 c8 -50 43 -94 91 -116 32 -15 66 -19 158
-19 64 0 129 5 145 11 45 17 93 70 105 116 l10 43 55 0 c47 0 59 -4 84 -29
l29 -29 0 -1222 0 -1222 -29 -29 -29 -29 -2332 0 -2332 0 -29 29 -29 29 0
1259 c1 959 4 1264 13 1285 15 33 213 239 263 273 l37 25 533 0 c354 0 542 -4
561 -11z m983 -244 l0 -85 -85 0 -85 0 0 85 0 85 85 0 85 0 0 -85z m680 0 l0
-85 -85 0 -85 0 0 85 0 85 85 0 85 0 0 -85z m1370 0 l0 -85 -85 0 -85 0 0 85
0 85 85 0 85 0 0 -85z"/>
<path d="M445 2376 c-41 -19 -83 -66 -95 -107 -6 -18 -10 -83 -10 -143 0 -135
18 -182 84 -221 l43 -25 557 0 c610 0 587 -2 639 60 36 42 47 89 47 200 -1
141 -25 195 -105 231 -37 17 -77 19 -585 18 -433 0 -551 -3 -575 -13z m1095
-241 l0 -85 -515 0 -515 0 0 85 0 85 515 0 515 0 0 -85z"/>
<path d="M2325 2376 c-84 -38 -105 -88 -105 -246 0 -137 14 -180 72 -222 30
-21 45 -23 173 -26 130 -2 143 -1 180 20 66 38 85 88 85 230 0 79 -5 130 -14
151 -16 39 -61 82 -99 96 -41 16 -255 13 -292 -3z m235 -241 l0 -85 -85 0 -85
0 0 85 0 85 85 0 85 0 0 -85z"/>
<path d="M3685 2371 c-80 -36 -104 -90 -105 -231 0 -111 11 -158 47 -200 44
-53 69 -60 213 -60 144 0 169 7 213 60 36 42 47 89 47 200 -1 200 -53 250
-260 250 -90 0 -124 -4 -155 -19z m243 -238 l3 -83 -91 0 -90 0 0 78 c0 43 3
82 7 86 4 4 43 5 88 4 l80 -3 3 -82z"/>
<path d="M3017 1696 c-91 -33 -117 -87 -117 -246 0 -138 16 -184 78 -225 31
-21 56 -27 124 -32 160 -11 235 12 285 86 21 31 23 45 23 168 0 145 -6 167
-57 214 -15 15 -43 31 -62 38 -47 15 -227 13 -274 -3z m223 -241 l0 -85 -85 0
-85 0 0 78 c0 43 3 82 7 85 3 4 42 7 85 7 l78 0 0 -85z"/>
<path d="M4385 1698 c-36 -13 -82 -53 -101 -90 -10 -19 -14 -65 -14 -161 0
-123 2 -137 23 -168 50 -74 125 -97 285 -86 68 5 93 11 124 32 62 41 78 87 78
225 0 159 -26 213 -117 246 -45 16 -234 17 -278 2z m223 -245 l3 -83 -86 0
-85 0 0 85 0 86 83 -3 82 -3 3 -82z"/>
<path d="M373 1175 c-27 -19 -37 -63 -23 -99 21 -56 24 -56 673 -56 409 0 604
3 626 11 44 16 66 59 51 105 -6 19 -20 39 -30 44 -12 6 -251 10 -647 10 -543
0 -631 -2 -650 -15z"/>
<path d="M3675 1001 c-75 -47 -95 -97 -95 -241 1 -200 53 -250 260 -250 139 0
184 16 226 80 25 37 28 52 32 148 5 121 -6 176 -44 222 -45 53 -70 60 -216 60
-112 0 -138 -3 -163 -19z m253 -233 l-3 -83 -85 0 -85 0 -3 83 -3 82 91 0 91
0 -3 -82z"/>
<path d="M370 830 c-43 -43 -34 -110 20 -137 36 -18 1914 -18 1950 0 54 27 63
94 20 137 -20 20 -38 20 -995 20 -957 0 -975 0 -995 -20z"/>
<path d="M379 497 c-46 -35 -50 -88 -10 -128 l29 -29 362 0 c429 0 430 0 430
95 0 24 -7 39 -26 54 -26 20 -37 21 -398 21 -276 -1 -375 -4 -387 -13z"/>
</g>
</svg>
